<?xml version="1.0" standalone="no"?>
<!DOCTYPE svg PUBLIC "-//W3C//DTD SVG 20010904//EN"
 "http://www.w3.org/TR/2001/REC-SVG-20010904/DTD/svg10.dtd">
<svg version="1.0" xmlns="http://www.w3.org/2000/svg"
 width="300.000000pt" height="300.000000pt" viewBox="0 0 300.000000 300.000000"
 preserveAspectRatio="xMidYMid meet">
<metadata>
Created by potrace 1.11, written by Peter Selinger 2001-2013
</metadata>
<g transform="translate(0.000000,300.000000) scale(0.100000,-0.100000)"
fill="#000000" stroke="none">
<path d="M1759 2996 c0 -3 0 -35 0 -71 0 -36 0 -80 0 -99 l1 -33 88 -6 c399
-27 768 -320 893 -710 27 -85 49 -201 49 -264 0 -59 -10 -54 110 -54 28 0 62
0 76 0 l27 1 -7 88 c-14 171 -47 293 -126 458 -162 336 -492 592 -864 669 -82
16 -246 30 -247 21z"/>
<path d="M930 2690 l0 -206 -172 -1 c-138 -1 -182 -5 -215 -18 -45 -18 -97
-69 -115 -114 -6 -14 -12 -102 -14 -196 -1 -93 -3 -174 -3 -180 -1 -6 -76 -10
-206 -10 l-205 1 0 -103 0 -103 33 -1 c17 0 109 0 204 -1 121 0 173 -3 175
-11 2 -7 3 -145 3 -307 l-1 -295 -207 -3 -207 -2 0 -105 0 -105 207 -2 206 -3
2 -180 c1 -195 5 -212 62 -269 51 -52 82 -59 268 -62 94 -1 173 -3 178 -3 4
-1 7 -93 7 -206 l0 -205 104 0 104 0 0 200 c1 110 3 203 5 208 3 4 142 7 309
6 l303 0 2 -175 c1 -96 2 -189 2 -206 l1 -33 103 0 103 0 0 205 c-1 130 3 205
9 206 6 0 87 2 180 3 186 3 218 10 267 62 53 57 61 93 61 282 l0 172 207 0
207 0 -1 103 -1 102 -194 2 c-106 1 -199 4 -206 7 -9 3 -12 54 -12 203 l1 198
-105 0 -104 0 0 -462 0 -463 -827 0 -828 0 0 828 0 827 463 0 462 1 0 104 0
104 -202 -1 -203 0 -1 41 c0 22 -1 115 -2 206 l-2 165 -102 1 -103 0 0 -206z"/>
<path d="M1771 2481 c-9 -6 -13 -35 -13 -99 0 -51 3 -95 6 -100 3 -5 23 -9 44
-10 156 -6 342 -136 414 -288 33 -71 39 -91 45 -159 3 -27 8 -54 12 -58 9 -9
186 -11 200 -3 10 6 -12 153 -34 223 -17 56 -70 157 -113 213 -108 142 -305
256 -479 276 -32 3 -60 8 -63 9 -3 2 -12 0 -19 -4z"/>
<path d="M934 1961 c-2 -2 -4 -235 -4 -518 l0 -513 518 2 517 3 1 505 c0 278
-1 510 -3 515 -3 10 -1019 16 -1029 6z m823 -513 c1 -229 -2 -308 -10 -309 -7
0 -146 -1 -309 -2 l-298 -2 0 25 c-1 26 -1 485 0 557 l0 42 308 -2 307 -2 2
-307z"/>
</g>
</svg>
